<?xml version="1.0" encoding="UTF-8"?>
<svg version="1.1" viewBox="0 0 2048 1516" width="2048" height="1516" xmlns="http://www.w3.org/2000/svg">
<path transform="translate(854,677)" d="m0 0h28l2 2 8 34 9 35 3 2 4-20 5-18 5-21 5-5h3l-2 16-3 8-1 7 1 1 5-20 6-20 1-1h28l1 1 1 30v127l-1 3-32 2v4l7 1 17 1 1 5-4 3-32 1-3-1 1-14h-22l-1 4 4 1 15 1-1 5-4 3h-29l-4-3-3 3h-34v-166l3-2h5l1 17 1 129h3l1-39 1-115zm30 134-1 2 1 10 3 3 1-5-3-10zm45 14v5l2-1v-4zm-81 12-2 7 1 2 3 1h26l1-1-1-7-2-1z" fill="#C38A40"/>
<path transform="translate(370,434)" d="m0 0h12l8 7 8 14 4 10 4 16 2 29 2 7 5 5 8 5h5l3-5 2-10 1-15 5-12 5-5h10l6 4 2 3v11l-4 8v3h6l5-5 4-9 1-17 1-2v-9l-4-9 1-4 4-1 5 3 6 9 11 8 4 5 2 9 4-1 3-7 3-20 1-2v-9l-3-7v-5l2-2 5 1 3 2 4 7v2h2v2l4 2 7 6 4 8 1 5 3-1 4-7 2-8 1-11 5-1 3 1v14l-4 12-9 10-8 4h-15l-5-2-4 8-3 4h-2v2l-8 6-5 1h-8l-7-2-3-1-2 7-4 7-5 4-5 2h-9l-8-4-3-3-3-1v10l-4 10-6 5-9 1-10-4-3-3-4-1v12l-4 10-6 6h-14l-10-5-1 10-2 8-3 5-6 5-2 1h-8l-9-6-9-15-4-1 2 7v7l-5 15-5 8-3 5-4 10-7 8-4 2h-8l-9-3-1 14-4 13 1 3 10 3 11 6 9 7 9 9 6 11v11l-4 5-2 1h-12l-8-6v-2h-2v-2h-2l-9-11-8-10-11-14-8-11-3-4-3-1v16l-3 9v7l14 5 11 6 8 6v2h2l8 10 4 8v9l-6 7-6 1-9-3-13-12-2-4h-2l-7-8-13-16-9-11-3-3v-2h-2l-7-9-9-11-12-14v-2h-2l-8-10v-2h-2l-12-17-7-14v-7l5-5 2-1h9l11 8 2 4h2l10 16 6 11 4 10 4 14 2 8 4 8 11 13 3 2 1-9v-35l-4-6-9-11-8-10-12-17-6-9-5-13 1-6 4-4 10-1 7 3 9 9 10 16 6 13 3 10 4 16 3 11 8 10 5 6h3l2-13 1-23 4-15 8-10 4-4 6-1 7 3 8 9h4l1-5 1-15-7-1-3-3-1-9 2-6 4-1 9 4h5l6-3 6 4 8 13 3 5 5 1 4-3 2-5v-22l-9-14-6-9-7-14h-4l-19 11-3 1-3-2 1-5 15-10 8-5v-13l5-5h9l5 4 6-1 10-6 1-5-4-14v-16zm4 8v9l4 13 5 1 7-5-2-5-7-11-2-2zm150 16-2 4v11l1 1h9l4-3-1-5-3-6-3-2zm-134 10-6 4-1 4 8 16 6 9 2-1-1-14-4-16zm95 8-2 6-1 9 3 2 9-1 2-2v-5l-4-6-3-3zm-114 4-11 8 1 5 8 20 3 15 2 12 7 6 4 2h7l3-5 1-3 1-24-5-9-9-14-6-12-1-1zm75 8-1 2v9l3 3 5-2 1-2v-7l-2-3zm-98 6v2h-2l1 6 7 13 7 11 4 3v-7l-6-14-5-13-1-1zm-139 61-1 4 6 12 11 16 13 17 4 4 1-4-3-9-8-17-12-17-7-6zm-33 27v6l9 14 11 14 13 16 3 2-1-7-3-8-11-19-8-10-3-4h-2v-2l-3-2zm120 1v5l3 2 5-1-3-5zm-9 9-1 1v10l4 6 5 3 7-1 5-6 1-4-5-3-6-2-6-4zm-6 64 2 5 9 11h2l2 4 12 13 3 3h5l2-4-6-11-9-10-9-7-8-4zm-30 24 2 4 9 10 7 8 14 14h5l1-5-5-9-8-9-12-9-8-4z" fill="#F5F3F0"/>
<path transform="translate(438,677)" d="m0 0h52l12 3 9 6 7 8 4 8 2 11v24l-3 12-5 9-9 10-3 3 2 9 12 36 3 10 4 9-1 3-28 1-6 2v3l5 1 22 1v4l-6 4h-32l-2-7-5-14-2-11h-2l2 10-1 5-1 1-19 1-8 1 1 4 2 1 15 1 2 4-6 4h-31l-1-1-1-165 3-2h7l1 1v20l1 40 1 18 1 6 1-1v-92zm36 27-7 2 1 4 18 3 1 1v29l1 2 4-1 2-4v-30l-4-4zm-6 16v35l8-1 3-3 1-3v-25l-2-3zm6 67-3 1-1 3 4 8 5 14 5 9 3 1-1-11-6-18-3-6z" fill="#C38940"/>
<path transform="translate(752,672)" d="m0 0h11l11 3 9 5 9 8 6 10 2 6 1 9v93l-4 13-6 8-11 11-8 7-6 5-10 4h-25l-12-6-9-7-6-10-2-4-2-12v-84l2-16 7-12 12-11 7-8 10-7 10-4zm1 29-5 2v3l10 3 5 4 2 18 1 52v23h4l1-6 1-50v-36l-3-10-7-3zm-40 10-2 4-1 46v51l2 8 5 8 3 1 2-1v-5l-4-8-2-13-1-90zm33 5-1 2v36l1 49 2 7 2 2h5l1-1 1-48v-31l-1-11-4-5z" fill="#C38A40"/>
<path transform="translate(1512,677)" d="m0 0h84l2 1v25l-17 17-9 6-13 6h-6l-2-2 1-6 1-4h-9v36l5-1 16-8h5l1 6v18l-3 5-2 2v3l2 1v9l6-1 18-8h6v54l-2 2-68 1-16 1 1 2 3 1 23 2 47 1 2 1-1 4-5 3h-84l-1-2v-164l2-2h9l1 5v137l1 1 1-3 1-54v-79l-1-15zm34 128 1 3 7-1v-2z" fill="#C28940"/>
<path transform="translate(612,672)" d="m0 0h13l13 4 11 8 9 11 4 12v100l-3 9-5 9-4 5h-2v2l-11 9-7 7-8 4-5 2h-24l-12-5-10-8-6-9-3-7-2-23v-71l2-15 5-10 5-6 6-4 12-13 10-7zm3 29-6 2v3l13 5 3 6 1 17v67l2 7 3-1 1-3v-95l-4-6-6-2zm-41 9-1 1-1 7-2 78v16l2 9 6 9 7 7 10 5 12 4h9l1-2-16-5-5-3h-2v-2l-8-7-6-10-2-7-1-9-1-60v-29zm32 6-1 4 1 87 4 5h7l1-37v-49l-2-7-3-3z" fill="#C38A40"/>
<path transform="translate(1102,677)" d="m0 0h83l1 1 1 9v14l-3 5-9 7-3 5-13 8-11 6-5-1v-11h-11v37l11-4 11-6h4l1 3-1 23-9 8-3 5-5 4-8 4v13l1 1 10-1 5-5 5 2 2 1v-8l6-5 22-11 3 1v53l-2 3-58 1-15 2 3 2 23 2 37 1 2 1-1 4-5 3h-85v-167l5-2 5 1 1 7v16l2 32 1 1 1-30v-34zm31 28-1 5 1 1h15l4 1 1 11h4v-12l-1-5-5-1z" fill="#C38A42"/>
<path transform="translate(1408,672)" d="m0 0h14l13 4 9 6 8 9 4 7 3 11 1 10-2 5-7 5-1 7-10 7-5 3h-3l1 4 11 8 7 8 7 14 2 19-2 15-5 10-9 10-12 11-5 4-12 5h-25l-10-4-9-7-7-9-5-10-1-4v-11l3-6 8-6 9-7 12-5v-2l-12-7-10-10-8-14-2-8v-17l3-13 7-13 13-13 1-2h2v-2l8-6 13-5zm2 29-5 2v3l14 3 4 9 2 11v12l3 1 4-4-3-3v-25l-3-5-5-3-4-1zm-38 7-4 9v22l3 11 7 10 8 7 15 9 11 5 6 1 2-4-5-4-13-8-11-8-8-9-5-10-3-13-1-18zm33 7-2 2v9l3 7 5 4 4-1 1-1v-7l-3-8-3-4zm20 71-2 4 3 5 2-1-1-7zm-19 7-1 1v7l2 7 3 3h4l-3-9-1-7zm-35 11-2 3v7l2 3 4-1-1-11zm5 17-1 4h3l-1-4z" fill="#C28A41"/>
<path transform="translate(1268,677)" d="m0 0h29l2 2 12 60 8 36 8 46 3 12-1 5-33 1v5l2 1 24 1 2 4-5 3-2 1h-32l-1-2v-8l-3-20v-2l-8 1-4 2-2 6v6l-1 1h-34l-1 7 26 1 2 3-4 4-2 1h-33l4-16 7-31 5-26 3-15 7-39 3-17 3-22 6-3h5l2 1 1-8zm-5 13-2 6v4h2l1-2v-8zm-11 57 1 3zm-1 3 1 2zm32 10-1 1v18l5 1 1-4-3-14zm12 62-1 5 3 3v-6z" fill="#C38A41"/>
<path transform="translate(669,306)" d="m0 0h20l12 3 9 6 6 9 2 5v14l-4 11-7 9 1 5 5 4 9 14 7 17 1 3 5 1 6-4 4-6 3-10 2-11h4v2l5-2 4-6 10-6 5-2h10l5 5 3 7 1 7 5-1 2-4 9-11 9-7 15-6 5 1 2 1v2h2l4 8 1 9 5-1 8-11 7-9 6-8 6-1 3 1 2 3 1 7v13l4-4 5-10 4-6 5-3h6l4 4 1 2v14h3l2-6 5-9 2-3h2v-2l3-2h8l5 4 2 8 1 17 5 1 5-5 6-10 4-7h5l1 5-5 13-9 10-6 3h-7l-6-4-4-9-1-16h-3l-9 19-6 12-3 2-4-1-3-4-1-7v-19l-3 1-8 15-3 8-4 6-2 2h-6l-2-3-2-16v-10l-5 5-11 14h-2v2l-6 4-7 2-7 8-8 4h-7l-8-4-5-5-2-4-4 1-4 4-8 4-5 6-9 6h-12l-8-6-4-6-2-1-1 7-3 6-7 8-4 2h-14l-5-4-8-16-3-8-6-8-6-5-5 1-12 6-6 2 2 8v27l-4 8-6 7-10 6-6 2h-19l-10-4-5-4-1-7 4-1 14 7h15l14-7 2-5 3-8v-13l-3-11v-3l-4-2-3-3 1-13-1-16 2-10 3-7 5-5h5v7l-3 5-2 8v13l1 2 9-1 17-1 5-4 5-9 2-8-1-11-5-8-2-1v-2l-9-3h-24l-15 4-17 8-16 10-10 9-1 2h-2l-2 5-5 8-2 8v12l3 7 4 5 7 4h11l10-4 9-7 5-4 5 1 1 4-7 8-10 7-11 4h-15l-10-5-7-7-4-8-1-4v-14l3-11 9-13 3-4h2v-2h2v-2h2v-2l13-10 19-10 10-4 6-2zm168 55-1 5 2 3h3l1-3-2-4zm-12 3-3 3-1 4v8l3 7 2 2h9l5-5-1-5-6-5-5-8zm-151 6-1 3 2 2 5-1v-4zm107 0 2 6 3 2 1-4-1-4zm-11 4-3 5-1 2v6l3 6 3 3 6 1 5-2 3-4-1-5-8-7-3-5z" fill="#F4F1ED"/>
<path transform="translate(1342,310)" d="m0 0 5 1 1 4-5 15-4 13-3 12-4 13-6 19-2 5 5-3 9-6 8-1 8 5 3 5-1 7-6 7-9 4-5 1 1 5 6 3 6-1 8-3 15-12h2l2-4 4-6 1-1h5l1 5-6 16-2 5v10l1 1h9l6-4 9-7 14-7 4-3h10v2h2v7l-5 11-2 5 5-3h2v-2l8-6 5-2h6l6 4 1 1v6l-4 11-2 5-1 7 10-1 13-9 11-4 7-2h7l10 5 3 3v7l-5 5-11 22 6-2 23-15 4 1 1 4-5 5-11 9-13 8-10 5-2 2-5 13-7 14-6 11-7 10-6 5-5 2-7-1-5-3-3-5v-8l4-9 10-13 11-11 16-12 5-5 3-5v-4l-10-2-5-4-2-6v-6l-7 4-4 1h-9l-5-3-3-4v-10l4-9 1-7-7 3-12 11-7 5-6 1-4-4 1-8 9-18-7 3-9 5-11 8-5 2h-15l-5-4-2-5v-10l-5 2-4 3-6 2h-17l-9-6-4-9-3-1-2 6-1 2h-8v-9l3-9-7 2-14 1-7 4-2 1h-13l-6-4v-2h-2l-3-6-1-7-13 2-7 2-9 5h-12l-7-5-4-6v-14l5-8 6-5 13-2h9l5 4 2 4v17l5-1 10-7 11-5h22l5 5 1 8-2 12 6-1 12-8 5-15 7-25 7-23 4-11zm-120 57-5 3-3 4v10l5 6 6 2 5-3 1-5-4-9-1-7zm12 1 1 6h3l-1-5zm41 9-5 4-2 3v11l4 5h11l2-3-1-5-3-5-2-9zm13 1-1 1 1 7 3-1 1-4-2-3zm53 12-8 6-5 6 2 3 10-2 6-4 1-7-2-2zm152 56-9 7-3 5 1 7 4 3 5-1 7-7v-2l5-2 3-2-1-5-4-3zm-18 58-7 6v2h-2v2h-2l-10 13-5 9v5l2 2 6-1 6-7 9-15 6-12v-4z" fill="#F4F1EC"/>
<path transform="translate(1610,412)" d="m0 0h10l5 5 1 7-4 13-6 10-10 13-14 14-16 12h-2v2h-2l-2 5-7 10-3 8 8-1 10-2 10-4 8-4 6-2h15l8 3 7 4 2 4-1 7-5 10v4l9-1 11-4-1-5-1-4 8-6 9-2 3 2v7l-1 5 5 6 2 4-1 5-12 16v6l3 2h11l14-7 5 1 1 5-11 8-6 2h-18l-8-7-1-10 3-7 9-11 1-4-13 4-11 3h-10l-5-2h-20l-8-4-5-7-2-10-12 3-14 1-1 1v20l-1 9-4 13-7 11-8 7-5 2-6-1-4-2-4-8 1-8 5-13 10-19 6-11 10-19 18-33 8-16 10-17 10-15h2l2-4zm3 8-5 4-11 16-10 17-6 10v3l4-1 8-7 9-10 8-11 4-7 3-10-1-4zm-3 85-6 2-4 4-2 3v8l5 6h8l2-2v-16l1-4zm9 5v6l4 1 1-5-1-2zm-69 17-8 15-10 21-2 7 3 3 5-1 6-7 4-8 4-15v-15z" fill="#F3EFEA"/>
<path transform="translate(1163,264)" d="m0 0h3l1 4v5l9 6 8 5v2h2l4 6 2 8-1 8-2 7-3 5h-2v2l-8 6-4 2-1 2 5 2 6 4v2l4 2 4 5 2 5v14l-4 8-8 7-12 5-10 1h-19l-10-1-14-5-5-3-2-5 2-3 5 1 9 4 16 3h21l8-2 9-6 3-4 1-3v-7l-3-7-9-8-9-4-10-2h-19l-5 3-5 9-9 11-7 7-10 7-11 5-10 3-8 1h-11l-14-3-11-7-6-7-5-12v-15l4-11 6-11 9-11 10-10 13-9 16-8 13-5 7-2 11-1 3-1h24l6 1h16zm-44 12-3 1-14 1-20 6-15 8-11 8-10 9-8 10-6 10-2 4-1 15 2 9 7 8 7 5 6 2 15 1 9-1 10-4 11-7 12-11 7-8 3-5 1-11 6-4 7-15 7-13 9-13v-3l-10-2zm38 6-9 11-10 18-4 9 1 4 14 2h8l12-4 8-6 5-7v-12l-6-8-6-5-4-2z" fill="#F4F1ED"/>
<path transform="translate(1767,556)" d="m0 0h8l3 2v4l-3 2-7 2-5 2-3 4 1 10 5 8v2h2l7 8 7 7 11 9 12 9h10l17-5 18-5 15-5 16-5 14-5 4 1 1 3-4 5-8 7-13 13-7 8-4 5h-2l-2 4-6 7 1 4 15 10 1 6-1 1h-6l-13-9-7-1-2 5-9 15-7 12h-6l-2-4 10-19 9-13-1-5-9-5-19-13-38-1-18-4-12-5-12-7-10-9-8-11-3-9v-6l1-1h6l9 18 11 11 10 6 10 4 15 4 22 1-1-3-14-11-10-9-10-13-6-12v-11l5-7 6-4zm102 61-17 5-8 3-21 5-4 2 2 4 21 14h4v-2h2l9-11 1-3h2l7-9 5-5v-3z" fill="#F5F2EF"/>
<path transform="translate(1926,644)" d="m0 0h8l6 5v9l-7 10-10 10-15 10-18 8-21 7-6 8-2 6v7l3 3h12l3-1 12-1 6-3 1-2h2l2-4 10-10h2v-2l13-10 13-9 13-6 3-1h10l4 2 2 4v7l-4 6-9 10-12 9-11 6-14 5-7 3-13 4-6 4-5 8v10l4 3h11l9-3h7v5l-3 3-13 4h-13l-6-3-5-5-1-3v-9l3-8 3-4 1-4-5 2-8 2h-13l-8-5-3-6v-7l3-10 9-14 3-4h2l2-4 12-13 10-9 9-7 10-7 8-4zm-2 8-9 6-11 8-13 10-5 4v2l-4 2-4 4 1 3 8-2 14-7 14-9 7-5v-2l4-2 4-5 1-6-1-1zm33 33-8 4-17 12-12 9-10 8-1 4h6l10-4 17-9 12-9 8-8v-7z" fill="#F3EFEB"/>
<path transform="translate(130,625)" d="m0 0 10 2 5 2 2 3-1 4-3 1-11-3-9 1-8 4-7 5h-2v2l-5 4-1 2h-2l-2 5-5 9-1 13 2 6 5 5 5 3 7 2 5-5 13-16 8-6 4-2h5l4 2 2 4-1 7-6 8-9 7-13 7-5 4-2 8v13l3 8 8 7 5 2h13l11-4 9-6 9-7 7-7 6-8 8-17 2-8v-21l-2-10 1-1h7l3 5 2 8v15l-4 16-5 11-5 8-9 11-8 8-14 10-10 4-10 2h-10l-10-3-8-6-6-8-3-7v-17l1-8-10-3-8-6-5-7-2-7v-9l3-11 6-10 11-12 10-7 12-5zm6 53-6 4-1 3 5-1 3-4z" fill="#F3EFEA"/>
<path transform="translate(718,695)" d="m0 0h2l-4 18-3-1-1 3-1 46v51l2 8 4 7 5 1v-5l5 5 9 7 12 5h18l15-6 11-11 4-8 1-4 1-109 2 2 1 9v93l-4 13-6 8-11 11-8 7-6 5-10 4h-25l-12-6-9-7-6-10-2-4-2-12v-84l2-16 7-12z" fill="#986F3D"/>
<path transform="translate(1499,686)" d="m0 0h9l1 5v137l1 1 1-3 1-12h1v23h82v1l-67 1-16 1 1 2 3 1 23 2 47 1 2 1-1 4-5 3h-84l-1-2v-164z" fill="#986F3D"/>
<path transform="translate(935,342)" d="m0 0h8l5 4 2 8 1 17 5 1 5-5 6-10 4-7h5l1 5-5 13-9 10-6 3h-7l-6-4-4-9-1-16h-3l-9 19-6 12-3 2-4-1-3-4-1-7v-19l-3 1-8 15-3 8-4 6-2 2h-6l-2-3-2-16v-10l-5 5-11 14h-2v2l-6 4-7 1 1-10h5l9-12 7-9 6-8 6-1 3 1 2 3 1 7v13l4-4 5-10 4-6 5-3h6l4 4 1 2v14h3l2-6 5-9 2-3h2v-2z" fill="#F3EFEB"/>
<path transform="translate(1266,679)" d="m0 0h1v9l-11 56-12 60-7 31-3 3h-2l-1 7 26 1 2 3-4 4-2 1h-33l4-16 7-31 5-26 3-15 7-39 3-17 3-22 6-3h5l2 1zm-3 11-2 6v4h2l1-2v-8zm-11 57 1 3zm-1 3 1 2z" fill="#99703E"/>
<path transform="translate(837,352)" d="m0 0 5 1 2 1v2h2l4 8v15l-2 6-6 7-8 4h-7l-8-4-5-5-2-4-4 1-4 4-8 4-5 6-9 6h-12l-8-6-5-8-1-3v-9l10-10 12-6h10l5 5 3 7 1 7 5-1 2-4 9-11 9-7zm0 9-1 5 2 3h3l1-3-2-4zm-12 3-3 3-1 4v8l3 7 2 2h9l5-5-1-5-6-5-5-8zm-44 6 2 6 3 2 1-4-1-4zm-11 4-3 5-1 2v6l3 6 3 3 6 1 5-2 3-4-1-5-8-7-3-5z" fill="#F5F3EF"/>
<path transform="translate(1091,685)" d="m0 0h3v153l-1 9 62-1h20l2 1-1 4-5 3h-85v-167z" fill="#BE8A47"/>
<path transform="translate(1245,1042)" d="m0 0h16l8 4 5 6 4 7 2 6v23l-3 10-5 8-7 6-3 2h-17l-6-4-5-5-4-6-4-10v-23l5-12 7-8zm2 6-7 6-4 8-1 6v11l3 14 7 11 5 4h9l3-2v-2h2l4-7 2-6v-22l-4-11-4-6-6-4z" fill="#F7F5F2"/>
<path transform="translate(646,1038)" d="m0 0h29l3 3v11l-4-1-8-6-10-2-7 3-4 4-1 8 3 5 11 6 13 5 8 6 5 8v9l-4 8-8 7-5 2h-22l-8-4-3-4v-8h4v2h2l4 5 7 3h8l6-3 6-6v-9l-5-6-10-5-12-5-8-6-4-9v-6l4-8 6-5z" fill="#F6F3F0"/>
<path transform="translate(498,1038)" d="m0 0h49l1 1v5l-4 1-12-2h-16l-2 1v26l1 1h14l7-2h4l1 8-1 2-26-3v33h25l8-7 4 1 1 7-3 4h-51l1-4 2-3v-62l-1-3h-2z" fill="#F5F3EF"/>
<path transform="translate(425,686)" d="m0 0h7l-1 7-1 153h29l2 4-6 4h-31l-1-1-1-165z" fill="#BD8844"/>
<path transform="translate(1094,686)" d="m0 0h2l1 7v16l2 32 1 1 1-6h1l1 26v65l-1 10h82v1l-57 1-15 2 3 2 23 2 17 1v1h-62v-79z" fill="#986F3D"/>
<path transform="translate(711,701)" d="m0 0v3l-4 7-1 7 1 2 1 86 2 12 4 9 9 10 11 7 11 3h20v2h-2v2l-7 3h-25l-12-6-9-7-6-10-2-4-2-12v-84l2-16 7-12z" fill="#BE8A47"/>
<path transform="translate(1377,1042)" d="m0 0h20l6 4 5 6 2 10-4 11-4 5h-2v2h-2l-2 4-4 2v2l-8 7-4 5h-2l-2 8 7 1h16l11-7 4 1v9l-3 2h-44l-3-2 3-9 8-11 8-8 8-7 6-9v-12l-3-4v-2l-7-2-8 1-11 9-4-1 1-5 5-6z" fill="#F3F0EC"/>
<path transform="translate(1108,1042)" d="m0 0h19l7 4 4 6v17l-6 9h-2l-2 4h-2v2h-2v2l-8 7-6 7h-2l-1 8 2 1h21l6-4 3-3h3v11l-1 1h-44l-2-1 1-7 4-8 11-12 10-9 6-10v-10l-4-6-6-3-8 1-11 9h-4v-5l6-7z" fill="#F4F1EE"/>
<path transform="translate(431,687)" d="m0 0h2v20l1 40 1 18 1 6 1-1 1-14h1l1 38v28l-1 15 25-1 2-1-1-19 1-3h2l2 4v4h-2l2 11-1 5-1 1-19 1-8 1 1 4 4 3h-16l-1-2 1-152z" fill="#986F3D"/>
<path transform="translate(764,1038)" d="m0 0h54l2 2v4l-4 1-10-2h-8l-1 2v61l1 3 3 3-1 2h-19v-3l2-2 1-5v-60l-1-1h-8l-9 2h-4v-6z" fill="#FAFAF8"/>
<path transform="translate(572,700)" d="m0 0v3l-6 9-2 6-1 7v43l1 9 1 2h2l1 9 1 21 3 12 4 8 4 4v2l4 2 9 6 13 4h16l10-4 2 1-6 5-11 5h-24l-12-5-10-8-6-9-3-7-2-23v-71l2-15 5-10z" fill="#C18941"/>
<path transform="translate(1532,1044)" d="m0 0h2l1 4v43l1 2 5 1v3l-6 2v6l5 7-1 2h-18v-3l4-9v-3l-21-2-10-1 2-4 13-18 11-15 8-11zm-10 24-11 15-5 7 1 2 16 2 2-3 1-22z" fill="#F5F3EF"/>
<path transform="translate(1499,686)" d="m0 0h7l-3 7-4 1 1 42v76l1 17h2l1-3h1v20h81l2 1-1 4-5 3h-84l-1-2v-164z" fill="#C38A40"/>
<path transform="translate(1290,804)" d="m0 0h5l2 6 3 20v8l-4 1v5l2 1 24 1 2 4-5 3-2 1h-32l-1-2v-8l-3-20v-2l-8 1-4 2-2 6-1 4-1-1v-8l4-4 5-2-6 2-2 1 1-5 9-7zm-16 14m21 4-1 5 3 3v-6z" fill="#C08943"/>
<path transform="translate(1569,748)" d="m0 0h1l1 5v18l-3 5-2 2v3l2 1v9l6-1 5-1-4 3-5 3-1 14h-7l-4-4-3 4-12 1-3-3v-20l19-10 6-4h2l-1-6v-17zm-23 57 1 3 7-1v-2z" fill="#98703E"/>
<path transform="translate(1248,715)" d="m0 0h1v14l-1 3-1 14 2-2-1 8-16 80-4 15 4-1h25l2 3-4 4-2 1h-33l4-16 7-31 5-26 3-15 7-39z" fill="#BE8A47"/>
<path transform="translate(578,696)" d="m0 0h2l-1 5-2 11-3-1-1 7-2 78v16l1 9-2-2-2-10-1-27v-3l-4-1-1-10v-43l2-10 5-9 5-7z" fill="#986F3D"/>
<path transform="translate(1366,799)" d="m0 0 1 2v9l3 12 6 10 9 8 10 5 8 2h18l7-3h3l-2 4-8 4-6 2h-25l-10-4-9-7-7-9-5-10-1-4v-11l3-6z" fill="#C28A42"/>
<path transform="translate(656,698)" d="m0 0 4 2 2 7v100l-3 9-5 9-4 5h-2v2l-11 9-5 3-10 4h-16l-13-4-9-6-5-5-6-7-1-5 2 1 4 7 7 7 10 5 12 4h9l-15-5-5-3 2-1 10 4h20l9-4 8-5 7-7 5-9 1-19v-24l-1-67z" fill="#986F3D"/>
<path transform="translate(1372,795)" d="m0 0h2l1 3v11l-2-4h-2l-1 2v7l1 2h3l1-5 2 2 6 12 8 8 12 6 3 1h20l12-4 2 1-8 8-6 1-5 2h-18l-13-4-10-7-8-9-4-9-2-9v-9l1-3zm4 26-1 4h3l-1-4z" fill="#986F3D"/>
<path transform="translate(840,688)" d="m0 0h4v157l1 2 28 1h4v2l-5 4-33-1 1-13v-138l-1-13z" fill="#C38940"/>
<path transform="translate(841,686)" d="m0 0h5l-1 161-2-3v-148l1-8-4 1 1 13v142l-2 9h30v1h-31v-166z" fill="#B08B59"/>
<path transform="translate(1540,704)" d="m0 0h28l1 1 1 9 4 1 17-9 3 1-13 13-9 6-13 6h-6l-2-2 1-6 2-1v8l14-6 5-4-5 3h-7v-12h-9l-11-1-1-1z" fill="#986F3D"/>
<path transform="translate(1499,686)" d="m0 0h7l-3 7-4 1 1 42v75l-1 42 76-1 8-1 3-1v-2h-36v-1l8-1h28l2 1-1 4-5 3h-84l-1-2v-164z" fill="#B38B55"/>
<path transform="translate(718,695)" d="m0 0h2l-4 18-3-1-1 3-1 46v51l1 7-3-1-2-12-1-86-1-4 3-9 6-9z" fill="#99703E"/>
<path transform="translate(622,712)" d="m0 0h2l2 5 1 17v67l1 6 2 2-5 1-6-2v-36l2-10h2v-44z" fill="#9A713F"/>
<path transform="translate(1290,804)" d="m0 0h5l2 6 3 20v8l-4 1v5l2 1 14 1v1h-20l-1-1-2-19-2-14-6 1v2l-15 7 1-5 9-7zm5 18-1 5 3 3v-6z" fill="#986F3D"/>
<path transform="translate(925,686)" d="m0 0 1 4-1 2-2 13-2 5-1 7 1 1 2-3-1 8-9 39-4 13-1 2-4-1v-11l7-28 6-21 6-27z" fill="#986F3D"/>
<path transform="translate(1370,748)" d="m0 0 4 5 6 8 12 9 16 8 8 3 3-1-2-4-3-3 6 2 7 6 2 5 2 17-2 9-4 2-3-3v-4l-2-1h2l-1-2-2-12-4-6-19-10-11-7-10-10-5-8zm55 38-2 4 3 5 2-1-1-7z" fill="#98703E"/>
<path transform="translate(881,796)" d="m0 0 3 1 3 14-1 4-2-2 1 10 2 2v-9l2 3 4 15v3h25v11h-1v-8h-22l-1 4 6 2v1h-15l-2-6-2-9-1-13v-18z" fill="#986F3D"/>
<path transform="translate(473,785)" d="m0 0 4 1 3 6-1 2-2-6h-6l1 5 4 9 5 13 3 6 2 1 2-4 4 11 1 8h30v1l-27 1-6 2v3l9 2v1h-14l-2-6-5-19-4-12-3-12-3-5-1-4 3-3z" fill="#99703E"/>
<path transform="translate(931,794)" d="m0 0 3 1-1 39-1 3h29v1l-31 2v4l12 2v1h-19l1-25 3-14zm-2 31v5l2-1v-4z" fill="#99703E"/>
<path transform="translate(1298,681)" d="m0 0 2 4 7 34 8 38 4 18 8 46 1 9-2 2-3-9-3-13-3-21-3-9v-7l-1-5-7-40-8-42z" fill="#99703E"/>
<path transform="translate(1413,707)" d="m0 0 6 1 4 7 3 14v8l-1 4 5-1v-3l4-3 19-9h2l1-3 1-12 2-1 1 10-2 5-7 5-1 7-10 7-5 3h-3v4l-5-2v-2h-3l-3-5v-22l-3-8z" fill="#98703E"/>
<path transform="translate(961,680)" d="m0 0h1l1 28v127l-2 1-1-8v-137z" fill="#9A713F"/>
<path transform="translate(845,698)" d="m0 0h1l1 5 1 129h3l1-5h1v10h-5l-1 7 1 3h-3z" fill="#99703E"/>
<path transform="translate(745,713)" d="m0 0 5 1 1 2h-5v38l1 49 2 7 1 2-4-1-2-2-2-14v-49l1-31z" fill="#99703E"/>
<path transform="translate(761,711)" d="m0 0 3 2 2 18 1 52v23l4-1-2 4-6 1-1-26v-67z" fill="#99713F"/>
<path transform="translate(854,685)" d="m0 0h1v153l-3-1v-44l1-105z" fill="#B08C5B"/>
<path transform="translate(606,713)" d="m0 0 6 2v1h-6l1 91 2 4-4-1-2-6v-89z" fill="#986F3D"/>
<path transform="translate(572,821)" d="m0 0 2 1 4 7 7 7 10 5 12 4h9l-15-5-5-3 2-1 10 4h20l9-4 8-5 8-8v3l-3 4h-2v2l-11 9-5 3-10 4h-16l-13-4-9-6-5-5-6-7z" fill="#99703E"/>
<path transform="translate(577,705)" d="m0 0h1l1 98 1 9 5 10v2h2l7 8 4 4h-4v-2l-4-2-8-9-4-8-2-14-1-60v-19z" fill="#B08B59"/>
<path transform="translate(1513,683)" d="m0 0h1l1 21v97l-1 34h-1l-1-21v-123z" fill="#B08B59"/>
<path transform="translate(438,677)" d="m0 0h52v1h-51l1 4 1 39v20l-1 53h-1l-1-38-1-78z" fill="#B28F60"/>
<path transform="translate(572,700)" d="m0 0v3l-6 9-2 6-1 7v92l-2 1-1-16v-71l2-15 5-10z" fill="#B08B59"/>
<path transform="translate(716,709)" d="m0 0h1l1 97 4 13 2 5-4-2-4-11-1-9v-89z" fill="#B08B59"/>
<path transform="translate(1389,366)" d="m0 0 7 1 4 4-1 6-4 5h-7l-6-5v-6l5-4z" fill="#F5F3F0"/>
<path transform="translate(614,699)" d="m0 0h9l7 3 3 5 1 8v45l-1 48-3 1 1-5v-95l-3-5-6-2h-7l-6 2-2 3-2-1 2-4z" fill="#B08B59"/>
<path transform="translate(1155,773)" d="m0 0 2 1-8 7-3 5-5 4-8 4v13 3h-3l-1-4v-18l8-5 17-9z" fill="#986F3D"/>
<path transform="translate(753,699)" d="m0 0h9l8 4 3 6v95l-2 2-1-1v-15l1-40v-36l-2-10-7-2h-10l-2-2z" fill="#AF8A58"/>
<path transform="translate(1402,789)" d="m0 0 7 1 6 9 1 3v10l-3 2-7-2-3-3-2-5v-13zm4 4-1 1v7l2 7 3 3h4l-3-9-1-7z" fill="#99713F"/>
<path transform="translate(1541,717)" d="m0 0h11l3 1-1 3-10-1v38l-4 1v-41z" fill="#986F3D"/>
<path transform="translate(1413,707)" d="m0 0 6 1 4 7 3 14v8l-1 4 6-1 2 2 6-1 4-1-3 3-5 3h-3v4l-5-2v-2h-3l-3-5v-22l-3-8z" fill="#9B7240"/>
<path transform="translate(1377,692)" d="m0 0h2l-2 10-2 7-3-1-3 9v22l1 9-2-3-2-10v-15l1-7h-1v-6l6-8 3-5z" fill="#99703E"/>
<path transform="translate(1246,736)" d="m0 0h1v10l2-2-1 8-7 35-3 1-1-5 7-36z" fill="#BE8640"/>
<path transform="translate(1453,771)" d="m0 0 3 4 2 5 2 19-2 15-5 10-1-2 3-7 2-4h-2l-1-7v-20z" fill="#9A713F"/>
<path transform="translate(1281,749)" d="m0 0 3 1 2 10-1 4-2-3v18h4l2-2v4l-2 1h-7l-2-6v-15l2-11z" fill="#99703E"/>
<path transform="translate(751,715)" d="m0 0 4 1 3 8v88l-2-4-1-5 1-40v-31l-1-11z" fill="#B08B59"/>
<path transform="translate(612,715)" d="m0 0h3v2h2l2 4 1 54v21l-1 16h-2v-86l-2-7z" fill="#B08A58"/>
<path transform="translate(1376,702)" d="m0 0 1 4v23l3 11 9 14 10 8 17 10-3 2-11-7-11-8-9-10-5-10-3-13v-17z" fill="#B08B59"/>
<path transform="translate(1131,717)" d="m0 0 12 1v2h-11l1 38-4 1v-41z" fill="#9A713F"/>
<path transform="translate(1499,686)" d="m0 0h7l-3 7-4 1 1 42v12h-2l-1-30v-30z" fill="#B38A54"/>
<path transform="translate(887,1102)" d="m0 0h9l3 4-1 6-4 2h-5l-4-4v-6z" fill="#F4F0EB"/>
<path transform="translate(884,684)" d="m0 0 2 4 7 29 8 31 3 2v10h-3l-10-41-7-30z" fill="#9A713F"/>
<path transform="translate(1248,715)" d="m0 0h1v14l-3 11-5 28-7 35-2 4 1-10 4-19 3-19 3-15 4-21z" fill="#B08B59"/>
<path transform="translate(520,700)" d="m0 0 2 2 2 11v24l-3 12-5 9-2 1 2-5 3-10 2-20v-15z" fill="#99703E"/>
<path transform="translate(1184,781)" d="m0 0 3 1v53l-3 3-4-2 4-1 1-52-5 1 1-2z" fill="#A78151"/>
<path transform="translate(469,703)" d="m0 0h15l9 2 3 6v24l-2 9-4 3h-2v-2l4-1 1-4v-30l-3-3-16-2h-5z" fill="#B08C5A"/>
<path transform="translate(506,786)" d="m0 0 2 1 10 29 3 10 3 9-6-3-4-14-2-14-2-1-3-12z" fill="#99703E"/>
<path transform="translate(1366,835)" d="m0 0 5 5 6 5 7 4 8 3h20l8-3h4l2-4 5-1-2 4-8 4-6 2h-25l-10-4-9-7-5-6z" fill="#B08B59"/>
<path transform="translate(871,837)" d="m0 0h6l1 2 1 11 1 2 24 1v1h-25l-3-4 1-2-4 2v-2h-28l3-2h28v-7l-5-1z" fill="#AF8A58"/>
<path transform="translate(1297,812)" d="m0 0 2 3 3 20 25 1v-6h2l1 7-1 1h-29l-3-20z" fill="#A98351"/>
<path transform="translate(466,718)" d="m0 0h12l1 2h-11l1 36h-3z" fill="#98703E"/>
<path transform="translate(931,681)" d="m0 0h1l-1 12-9 35-2 3 1-8 2-13 7-26z" fill="#A88250"/>
<path transform="translate(1362,712)" d="m0 0 1 3-2 8v17l3 14 2 6h-2l-5-11-1-5v-17l3-13z" fill="#A27B49"/>
<path transform="translate(562,817)" d="m0 0 2 4 4 9 6 9 9 6-3 2-8-5-6-8-4-9z" fill="#9D7543"/>
<path transform="translate(632,843)" d="m0 0 2 1-6 5-11 5h-24l-12-5 2-2 10 4 3 1h18l10-4h2v-2z" fill="#AF8957"/>
<path transform="translate(466,813)" d="m0 0h2l2 4v4h-2l2 11-1 5-5 1 2-3-1-19z" fill="#99703E"/>
<path transform="translate(841,686)" d="m0 0h5l-1 57h-1l-1-47 1-8-6 1z" fill="#B39062"/>
<path transform="translate(796,1041)" d="m0 0h6l-4 2-1 2v64h-2v-67z" fill="#D4D0CA"/>
<path transform="translate(479,789)" d="m0 0 3 4 5 15 4 13-1 4-4-8-7-25z" fill="#AF8957"/>
<path transform="translate(1246,736)" d="m0 0h1v10l2-2-1 8-3 10h-3l1-9z" fill="#C48A40"/>
<path transform="translate(1425,702)" d="m0 0 3 1 3 6 1 27-4-1v-25z" fill="#AF8957"/>
<path transform="translate(1157,705)" d="m0 0h1l1 5v10l-1 2 14-8h2l-2 4-9 4-5 2-2-6v-9z" fill="#B48E5C"/>
<path transform="translate(925,686)" d="m0 0 1 4-1 2-2 13-2 5-1 6h-2l1-9 4-18z" fill="#9B7341"/>
<path transform="translate(499,846)" d="m0 0h18v4l-6 4-4-2 7-1v-2l-24-1v-1z" fill="#AE8957"/>
<path transform="translate(1386,753)" d="m0 0 4 2 12 9 14 8-3 2-11-7-11-8z" fill="#AE8856"/>
<path transform="translate(1407,700)" d="m0 0h14l6 4-1 2-5-3-4-1h-7l-4 1-1 3h6v1h-9l-1-4z" fill="#99713F"/>
<path transform="translate(479,719)" d="m0 0 2 1v31l-6 5-7 1 1-2 8-3 2-4v-25l-1-3z" fill="#B08C5B"/>
<path transform="translate(1499,686)" d="m0 0h7l-3 7-4 1v17h-1v-24z" fill="#C18A43"/>
<path transform="translate(1574,721)" d="m0 0m-1 1m-20 1h1v8l14-6 5-2-1 3-13 6h-6l-2-2 1-6z" fill="#9A7240"/>
<path transform="translate(1434,676)" d="m0 0 8 4 8 8 6 10-2 3-7-13-2-1v-2h-2l-4-4-5-3z" fill="#AC8756"/>
<path transform="translate(470,819)" d="m0 0 2 3 2 5 2 9 3 9v8h-1l-3-13-3-7-2-11-2-1h2z" fill="#AB8654"/>
<path transform="translate(1592,782)" d="m0 0h6l-1 10h-1v-9l-24 12-2-1 7-4h2v-2z" fill="#AF8A58"/>
<path transform="translate(1179,707)" d="m0 0 2 1-10 8-11 6h-2l1-3 14-8z" fill="#986F3D"/>
<path transform="translate(1129,704)" d="m0 0h28v5l-1-3h-23v5h-4z" fill="#99713F"/>
<path transform="translate(776,676)" d="m0 0 10 6 8 9 5 10-2 2-6-12-6-7-9-6z" fill="#AD8857"/>
<path transform="translate(637,676)" d="m0 0 11 7 8 9 3 7-3-1-6-9-7-7-6-4z" fill="#AE8958"/>
<path transform="translate(1430,750)" d="m0 0 4 1 9 6 8 9 2 5-3-1-4-6-8-8-8-5z" fill="#AC8755"/>
<path transform="translate(469,703)" d="m0 0h15l9 2 2 3-1 3-4-4-16-2h-5z" fill="#AD8755"/>
<path transform="translate(1156,798)" d="m0 0h1l1 11-1 1h-5l-2-3v-4l4 1 2 1z" fill="#99713F"/>
<path transform="translate(1565,747)" d="m0 0h5l-2 2-6 2-15 8-4-1 16-8z" fill="#B08B59"/>
<path transform="translate(898,745)" d="m0 0h2l2 4 2 1v10h-3l-3-13z" fill="#986F3D"/>
<path transform="translate(614,699)" d="m0 0h9l3 1v2h-11l-6 2-2 3-2-1 2-4z" fill="#A57E4C"/>
<path transform="translate(1277,819)" d="m0 0 5 1-1 2-8 1-4 2-2 6-1 4-1-1v-8l4-4z" fill="#9A7240"/>
<path transform="translate(582,821)" d="m0 0 3 1v2h2l7 8 4 4h-4v-2l-4-2-8-9z" fill="#AE8957"/>
<path transform="translate(1358,809)" d="m0 0h2l3 19h-2l-3-8z" fill="#A07846"/>
<path transform="translate(716,806)" d="m0 0h2l4 13 2 5-4-2-4-11z" fill="#AC8654"/>
<path transform="translate(887,347)" d="m0 0h1l2 22-3 3z" fill="#BBA385"/>
<path transform="translate(1428,844)" d="m0 0h3l-2 4-8 4-9 2v-2l8-3h4l2-4z" fill="#AC824C"/>
<path transform="translate(500,680)" d="m0 0 5 2 6 4 7 8-1 2-5-5-8-7-4-2z" fill="#AC8756"/>
<path transform="translate(1408,714)" d="m0 0 4 2 4 6 1 3v12h-3l1-2v-7l-3-8-2-3-3-2z" fill="#B08B59"/>
<path transform="translate(1404,713)" d="m0 0 4 2-4 2v9l1 6-3-2-1-5v-10z" fill="#99703E"/>
<path transform="translate(521,833)" d="m0 0 4 2-1 3-31-1 1-2 27 1z" fill="#B08B59"/>
<path transform="translate(706,831)" d="m0 0 5 5 6 7-6-1-5-7z" fill="#9F7745"/>
<path transform="translate(1449,730)" d="m0 0h1v6l-5 4-10 3 3-3 6-3-2-2 7-2z" fill="#AD8651"/>
<path transform="translate(1149,711)" d="m0 0 3 1 2 11 2 2h-5l-1-1z" fill="#99713F"/>
<path transform="translate(139,674)" d="m0 0 1 3-4 2-5 3-3 5-4 2 2-4 6-7z" fill="#A07846"/>
<path transform="translate(632,843)" d="m0 0 2 1-6 5-10 4-1-2 9-3v-2z" fill="#A8814F"/>
<path transform="translate(1246,736)" d="m0 0h1v14l-1 3h-2l1-13zm2 8 1 4-2 1z" fill="#BF873F"/>
<path transform="translate(1286,760)" d="m0 0h1l3 14v5l-3-3-2-12z" fill="#AD8755"/>
<path transform="translate(923,710)" d="m0 0h3l-3 15-2 6-1-4 2-8z" fill="#B08B59"/>
<path transform="translate(1458,709)" d="m0 0h1l1 10-2 5-3-1 1-1 1-12z" fill="#A7814F"/>
<path transform="translate(730,682)" d="m0 0h2l-2 4-9 9-2-1z" fill="#BC9868"/>
<path transform="translate(1157,705)" d="m0 0h1l1 5v10l-2 2-1-6v-7z" fill="#AD8856"/>
<path transform="translate(900,846)" d="m0 0h13v2h-2l-1 3-1-2-9-1z" fill="#AF8A58"/>
<path transform="translate(1248,715)" d="m0 0h1v14l-2 4h-1l1-10z" fill="#B58A52"/>
<path transform="translate(1312,846)" d="m0 0h10l2 4-5 3-3 1-1-2 6-3v-1l-9-1z" fill="#B08C5C"/>
<path transform="translate(931,681)" d="m0 0h1l-1 12-1 3h-2l1-9z" fill="#B39062"/>
</svg>
