<?xml version="1.0" encoding="UTF-8"?>
<svg version="1.1" viewBox="0 0 2048 1336" width="4096" height="2672" xmlns="http://www.w3.org/2000/svg">
<path transform="translate(556,524)" d="m0 0h946l2 1v353l-2 2h-153l-2-3-1-74-1-1-31-1h-480l-121 1-2 1-1 76-1 1h-156l-1-1v-38l1-315z" fill="#525456"/>
<path transform="translate(657,39)" d="m0 0h27l92 1 2 2v34l1 2 124 1h374l2-1 1-37 3-2h93l28 1 1 1 1 28v85l-1 68-2 2h-749l-2-2v-180l1-2z" fill="#535557"/>
<path transform="translate(755,292)" d="m0 0h119l25 3 21 7 17 8 13 9 13 11 7 7 9 11 9 12 6 10 7 16 5 17 2 11 2 31v36l-2 3h-384l-1-1v-17l1-40 2-19 5-18 8-18 11-18 13-16 9-10 10-8 19-11 12-6 18-6 16-3z" fill="#957D4B"/>
<path transform="translate(1176,292)" d="m0 0h125l20 3 13 3 20 8 15 9 13 10 11 10 7 8 10 12 12 20 6 15 3 12 2 14 1 13v53l-2 2h-381l-2-2v-34l1-28 3-17 5-17 8-17 13-20 8-10 11-12 13-11 8-6 18-8 18-6z" fill="#957D4B"/>
<path transform="translate(823,1073)" d="m0 0h47l7 2 5 11 9 21 11 20 10 23 18 40 10 22 6 13 3 1 2-6 7-16 17-36 13-29 7-15 12-26 10-23 3-2h49l3 2 1 51v64l-1 92-2 2h-47l-1-1-1-99h-2l-6 12-9 21-14 32-7 15-8 18-2 2h-55l-3-5-5-16-8-18-5-9-5-14-8-18-10-21-2-1v100l-1 2h-49l-2-3v-48l1-140 1-19z" fill="#967E4D"/>
<path transform="translate(372,1066)" d="m0 0h35l18 4 20 8 10 6 10 8 8 8 9 12 8 14 5 11 4 16 1 5 1 21-1 14-4 19-7 20-6 11-8 10-9 10-10 8-17 10-16 7-16 4h-36l-14-3-13-5-12-6-13-9-11-10-10-13-8-13-7-19-4-20-1-7v-22l3-17 5-17 10-19 10-13 9-9 14-10 17-8 14-4zm7 47-9 2-9 4-6 4-9 8-8 11-5 11-3 10v27l4 15 6 11 9 12 12 9 12 5 6 1h17l9-2 10-4 9-6 10-9 8-12 4-10 2-9v-28l-4-13-5-10-8-10-10-9-10-5-6-2-9-1z" fill="#967E4D"/>
<path transform="translate(636,1066)" d="m0 0h38l17 4 17 7 13 8 11 9 11 12 11 17 8 20 3 16 1 7v19l-4 25-8 24-9 14-11 12-7 7-15 10-14 7-18 6-16 2h-25l-16-3-16-6-12-6-16-12-7-7-12-16-6-10-6-18-4-17-1-8v-26l2-13 5-17 8-16 8-12 9-10 10-9 13-8 16-7 10-3zm11 47-13 2-12 6-10 9-8 10-6 12-4 18v15l4 18 8 15 8 10 10 8 8 4 6 2 8 1h18l10-2 12-6 12-11 8-11 4-8 4-17v-23l-4-15-7-13-10-11-9-6-11-5-4-1z" fill="#967E4D"/>
<path transform="translate(69,1072)" d="m0 0h85l18 2 14 4 14 8 10 9 7 7 9 14 6 12 2 5 2 24-2 21-8 18-9 13-10 11-4 5-1 6 8 10 7 11 9 13 9 14-1 4-3 1h-38l-15-1-5-8-7-12-8-13-5-7-2-1h-37l-1 1v40l-3 2h-16l-31-1-1-1-1-48 1-160 2-2zm46 44-2 1-1 3v40l1 33 4 3h25l14-2 10-6 8-7 4-6 4-12v-18l-4-10-6-8-10-7-10-3-6-1z" fill="#967E4D"/>
<path transform="translate(1698,1064)" d="m0 0 15 1 12 2 10 3 16 8 14 10 11 10 5 7v7l-2 2-6 2-23 12-4 2-7 1-9-5-8-6-13-5h-21l-12 5-7 7-2 6 2 4 10 6 18 6 25 7 19 7 19 9 15 10 7 6 7 10 5 16v21l-5 16-8 11-11 10-16 10-14 6-12 3-5 1h-35l-16-4-16-7-12-8-13-11-9-12-6-13-1-7 8-4 30-12 4-2h5l4 9 8 11 10 7 3 2 8 2h18l16-4 9-6 3-5-1-7-1-3-4-2-13-6-23-7-13-3-24-8-19-10-9-7-9-9-6-10-3-7-2-12v-9l3-14 6-12 8-10 11-10 16-9 13-5 8-2z" fill="#967F4E"/>
<path transform="translate(1450,1072)" d="m0 0h30l16 1 4 4 11 24 10 25 5 11 12 27 3 8 5 12 9 20 8 16 6 15 3 8 13 31 2 8-1 2h-54l-3-5-4-15-4-8-6-1h-94l-4 4-6 17-3 8h-54l-1-4 5-13 12-26 14-32 19-44 21-49 13-30 6-12zm20 67-4 6-17 39-11 23 1 5h61l2-1-1-6-7-17-7-15-12-30-2-4z" fill="#967F4E"/>
<path transform="translate(1146,1072)" d="m0 0h152l3 2-1 40-2 2-103 1-1 39 1 3 83 1 2 2v29l-1 10-2 2-83 1v34l6 1 60 1h39l2 1v31l-1 11-1 1-68 1h-86l-3-2v-201l1-8z" fill="#977F4E"/>
<path transform="translate(1848,1073)" d="m0 0h152l1 1 1 8v29l-2 5-2 1h-102l-1 2v38l1 2 3 1h80l2 2 1 7v13l-1 18-1 2-85 2v31l1 1h105l1 1v42l-2 5h-156l-1-4v-45l1-160z" fill="#977F4E"/>
<path transform="translate(1174,525)" d="m0 0h330v353l-1 1h-153l-1-1v-11l2-2 5 3 7 6 9 2h58l31-2 15-2 8-5 4-5 4-13 3-18 1-13v-32l1-57 1-26v-125l-3-26-3-8-7-6-12-4-19-1-4 1h-36l-22-1-56-1h-16l-10 1-28 1-44-1-20-1h-24l-26-1-7-1-36-1-3-1v-2z" fill="#4C4C4C"/>
<path transform="translate(789,81)" d="m0 0h479l3 2-13 4-16 3-40 1h-90l-29 1h-121l-16-1h-25l-16-1-88-1-16-2-7-1-1-1-10-2v-1z" fill="#434344"/>
<path transform="translate(557,525)" d="m0 0 118 1h216v2h-14l-31 2-8 1h-21l-37 1h-12l-18-1h-25l-28-1h-32l-30 2-6 1h-51l-9 3-5 3-5 8-1 10-1 34v16l1 9 1 66 1 21-1 22v26l-1 33v23l-1 4 1 8 2 26 3 13 4 8 5 4 10 3 10 1h20l15 1 41 1 14-1 9-3 6-5 5-10 2-10 2-21 2-1v54l-29 1h-126l1-51v-301z" fill="#434344"/>
<path transform="translate(1282,41)" d="m0 0h121l1 1 1 37v58l-1 83-1 2h-43l-2-2 7-2 13-1 5-2 6-8 7-16 2-18 1-16v-67l-1-3-2-15-4-9-4-5v-2l-11-3-30-2-24-1-14 1-12 4-9 6-5 7h-1z" fill="#434344"/>
<path transform="translate(1219,791)" d="m0 0h19l26 1 1 1 42 2 30 2 4 2h-476l-119 1-17-1v-1l20-2 59-1h84l45 1 56-2 15-1h56l9 2h98l2-1 24-2z" fill="#434344"/>
<path transform="translate(654,41)" d="m0 0h123v10l-2 15-2 3-4-6-10-6-7-3-19-3-25-2h-31l-6 2-5 2v2h-2l-2 5-3 9-3 35v29l-2 3z" fill="#434344"/>
<path transform="translate(555,811)" d="m0 0h2l1 8 2 26 3 13 4 8 5 4 10 3 10 1h20l15 1 41 1 14-1 9-3 6-5 5-10 2-10 2-21 2-1v54l-29 1h-126l1-51z" fill="#464645"/>
<path transform="translate(556,524)" d="m0 0h391v1l-56 1-19 1h-202l-113-1-2 4v299l-1 37-1 13h-1v-38l1-315z" fill="#615D53"/>
<path transform="translate(654,140)" d="m0 0h1l4 38 1 13 5 17 4 6 5 3 11 2 28 1v2h-59z" fill="#434344"/>
<path transform="translate(556,524)" d="m0 0h391v1l-56 1-19 1h-202l-113-1-2 2-1 6h-1v-8z" fill="#5C5A54"/>
<path transform="translate(827,217)" d="m0 0 30 1 6 2v1l-19 1h-130v-2l27-2h54z" fill="#434344"/>
<path transform="translate(372,1066)" d="m0 0h35l7 2v2l7 1 5 2-1 2-20-4-7-1h-14l-22 2-1-2 9-2z" fill="#555046"/>
<path transform="translate(937,219)" d="m0 0h76l41 1v1l-90 1h-27l-6-1v-1z" fill="#434344"/>
<path transform="translate(556,524)" d="m0 0 114 1v1h-113l-2 2-1 6h-1v-8z" fill="#525456"/>
<path transform="translate(1254,218)" d="m0 0h27l8 2v1h-65v-1l14-1z" fill="#434344"/>
<path transform="translate(897,526)" d="m0 0h48l-1 2h-7l-10 1h-24l-6-2z" fill="#434344"/>
<path transform="translate(556,524)" d="m0 0h13v1l-12 1-2 2-1 6h-1v-8z" fill="#7F6E4C"/>
</svg>
