<?xml version="1.0" encoding="UTF-8"?>
<svg version="1.1" viewBox="0 0 2048 1634" width="3008" height="2400" xmlns="http://www.w3.org/2000/svg">
<path transform="translate(1625,993)" d="m0 0h50l70 1 1 2 1 94v176l-1 250-1 3-2 1-40 1h-182l-6-2-2-4-1-15-1-95-3-1h-830l-103 1-2 1-1 4-1 106-2 4-161 1h-66l-4-3v-520l3-4z" fill="#535455"/>
<path transform="translate(490,276)" d="m0 0h178l3 3 1 53 4 2h736l1-1 1-41 1-13 3-3h178l3 2 2 51v140l-1 75-3 5h-1106l-5-2-1-3-1-135v-28l1-81 1-21z" fill="#545555"/>
<path transform="translate(639,649)" d="m0 0h168l25 2 17 3 22 7 17 6 19 9 12 8 20 16 17 17v2h2l8 10 11 14 6 10 9 16 8 16 4 11 6 23 3 29 1 80-1 4-6 2h-562l-3-3v-26l2-57 3-29 5-19 8-19 8-16 11-19 6-8 13-17 10-11 4-5 16-14 17-11 18-10 14-6 21-7 15-4 19-3z" fill="#99804F"/>
<path transform="translate(1272,649)" d="m0 0h173l21 3 22 5 18 6 18 7 19 11 16 12 9 7 17 17v2h2l18 22 7 10 11 20 5 11 7 20 4 18 3 26v85l-3 2-21 1h-541l-4-3v-66l1-22 2-19 5-21 6-16 8-17 7-11 6-11 7-11 12-16 4-5h2l2-4 12-12h2v-2l14-11 12-9 16-8 19-7 8-3 26-7 10-2z" fill="#99804F"/>
<path transform="translate(692,337)" d="m0 0h695l9 1v2l-16 3h-8l-8 1-5 1-8 1-26 1h-53l-8 1-8-1h-67l-6-1-13 1h-79l-12 1h-8l-8-1-1 1h-9l-9-1h-109l-13-1h-58l-4 1-18-3-14 1h-77l-8-1h-11l-12-2-14-3-14-1z" fill="#3D3D3E"/>
<path transform="translate(342,995)" d="m0 0h286l85 1 23 1 1 2-6 1-63 1h-132l-14-1h-12l-2 1h-28l-72 1h-39l-11 4-6 4-3 6-3 11-1 31v385l2 45 2 9 3 6 8 10 19 4-4 2h-34l-1-1-1-7v-72l1-16-1-37v-252l1-34v-47l1-57z" fill="#3D3D3E"/>
<path transform="translate(699,1396)" d="m0 0h737l41 1h12l3 1 11 1 1 2-118 1h-533l-3 1-207-1-39-1v-1l42-2 7-1h43z" fill="#3E3E3F"/>
<path transform="translate(1625,993)" d="m0 0h50l70 1-1 39-4-1-4-12-6-9-12-6-9-2-10-1-61-2h-23l-108 1-15-1h-16l-10 1h-11l-7-1h-8l-9 1-73-1-9 1h-21l-4-1h-12l-8 1-3-1h-31l-10-2-20-1 4-2 343-1z" fill="#424141"/>
<path transform="translate(1743,1132)" d="m0 0 2 3v384l-48-1-6-1v-2l11-1 5-1 13-2 9-11 3-15 2-26v-10l1-10 3-27v-38l1-17v-14l1-13 2-5-1-30 1-47v-87z" fill="#403F3F"/>
<path transform="translate(341,994)" d="m0 0h1246v1l-1245 1-1 68v44l-1 35v254l1 26-1 18v70l1 7 228 1v1l-161 1h-66l-4-3v-520z" fill="#817150"/>
<path transform="translate(1418,278)" d="m0 0h179l1 1v118l-2-3-3-63 1-16-5-13-6-3-6-5-7-3-23-3-22-1-19-3-6-1h-25l-6 2-22 3-13 3-12 9-3 7-2 1v-29z" fill="#3D3D3E"/>
<path transform="translate(489,278)" d="m0 0h180v18l-2 9-3 1-4-7-10-3-8-4-10-2-14-2h-20l-14-2-26-1-35-2-6 1h-6v2l-9 6-6 10-4 11-1 31-1 13h-3l1-78z" fill="#3D3D3E"/>
<path transform="translate(567,1438)" d="m0 0h1l1 25v56l-36-1h-11l1-2 13-1 1-1 11-2 4-1 2-6 4-5 5-12 2-16 1-23z" fill="#3D3D3E"/>
<path transform="translate(338,1343)" d="m0 0h2v54l1 26-1 18v70l1 7 228 1v1l-161 1h-66l-4-3z" fill="#7E725A"/>
<path transform="translate(1597,467)" d="m0 0h1v80l-44-1v-1l20-2h7v-2l3-3 4-7 4-14 1-13 1-4 2-31z" fill="#3D3D3E"/>
<path transform="translate(1743,1132)" d="m0 0 2 3v257h-1l-1-66-1-5-1-26 1-47v-87z" fill="#404041"/>
<path transform="translate(489,501)" d="m0 0h1l2 21 1 7 5 2 2 1 3 6 10 4 12 3v1l-20 1-17-1v-39z" fill="#3D3D3E"/>
<path transform="translate(782,996)" d="m0 0h57l-2 2-7 1-6-1-11 1h-7l-7 1-7-1-14 1h-9l-5 1-3-1h-22l-1-3z" fill="#3D3D3E"/>
<path transform="translate(1516,1505)" d="m0 0 7 2v3l4 2 5 4 2 2-15 1-3-2z" fill="#3D3D3E"/>
</svg>
